# AST/ASF file generated using VICON BodyLanguage
# -----------------------------------------------
:version 1.10
:name VICON
:units
  mass 1.0
  length 0.45
  angle deg
:documentation
   .ast/.asf automatically generated from VICON data using
   VICON BodyBuilder and BodyLanguage model FoxedUp or BRILLIANT.MOD
:root
   order TX TY TZ RX RY RZ
   axis XYZ
   position 0 0 0  
   orientation 0 0 0 
:bonedata
  begin
     id 1 
     name lhipjoint
     direction 0.645422 -0.672597 0.361999 
     length 2.39934 
     axis 0 0 0  XYZ
  end
  begin
     id 2 
     name lfemur
     direction 0.34202 -0.939693 0  
     length 6.58112  
     axis 0 0 20  XYZ
    dof rx ry rz
    limits (-160.0 20.0)
           (-70.0 70.0)
           (-60.0 70.0)
  end
  begin
     id 3 
     name ltibia
     direction 0.34202 -0.939693 0   
     length 7.02673   
     axis 0 0 20   XYZ
    dof rx
    limits (-10.0 170.0)
  end
  begin
     id 4 
     name lfoot
     direction 0.0835106 -0.229444 0.969733   
     length 2.08772   
     axis -90 7.62852e-016 20   XYZ
    dof rx rz
    limits (-45.0 90.0)
           (-70.0 20.0)
  end
  begin
     id 5 
     name ltoes
     direction 1.5358e-011 -4.21925e-011 1   
     length 1.04844   
     axis -90 7.62852e-016 20   XYZ
    dof rx
    limits (-90.0 20.0)
  end
  begin
     id 6 
     name rhipjoint
     direction -0.644959 -0.672941 0.362185   
     length 2.39812  
     axis 0 0 0  XYZ 
  end
  begin
     id 7 
     name rfemur
     direction -0.34202 -0.939693 0   
     length 6.67015   
     axis 0 0 -20   XYZ
    dof rx ry rz
    limits (-160.0 20.0)
           (-70.0 70.0)
           (-70.0 60.0)
  end
  begin
     id 8 
     name rtibia
     direction -0.34202 -0.939693 0   
     length 7.35735   
     axis 0 0 -20   XYZ
    dof rx
    limits (-10.0 170.0)
 end
 begin
     id 9 
     name rfoot
     direction -0.0670769 -0.184292 0.98058   
     length 2.25469  
     axis -90 -7.62852e-016 -20   XYZ
    dof rx rz
    limits (-45.0 90.0)
           (-20.0 70.0)
  end
  begin
     id 10 
     name rtoes
     direction -1.53575e-011 -4.21908e-011 1   
     length 1.13399   
     axis -90 -7.62852e-016 -20   XYZ
    dof rx
    limits (-90.0 20.0)
  end
  begin
     id 11 
     name lowerback
     direction -0.0188328 0.993434 -0.112847   
     length 2.27656   
     axis 0 0 0   XYZ
    dof rx ry rz
    limits (-20.0 45.0)
           (-30.0 30.0)
           (-30.0 30.0)
  end
  begin
     id 12 
     name upperback
     direction 0.00983139 0.998968 -0.04435   
     length 2.28631   
     axis 0 0 0   XYZ
    dof rx ry rz
    limits (-20.0 45.0)
           (-30.0 30.0)
           (-30.0 30.0)
  end
  begin
     id 13 
     name thorax
     direction 0.0177718 0.999807 0.00833073   
     length 2.30999   
     axis 0 0 0   XYZ
    dof rx ry rz
    limits (-20.0 45.0)
           (-30.0 30.0)
           (-30.0 30.0)
  end
  begin
     id 14 
     name lowerneck
     direction -0.0835025 0.993181 0.0813558   
     length 1.39447   
     axis 0 0 0   XYZ
    dof rx ry rz
    limits (-20.0 45.0)
           (-30.0 30.0)
           (-30.0 30.0)
  end
  begin
     id 15 
     name upperneck
     direction 0.210059 0.976535 0.0474817   
     length 1.39882   
     axis 0 0 0   XYZ
    dof rx ry rz
    limits (-20.0 45.0)
           (-30.0 30.0)
           (-30.0 30.0)
  end
  begin
     id 16
     name head
     direction 0.0780891 0.996944 -0.00207154  
     length 1.41828  
     axis 0 0 0   XYZ
    dof rx ry rz
    limits (-20.0 45.0)
           (-30.0 30.0)
           (-30.0 30.0)
  end
  begin
     id 17 
     name lclavicle
     direction 0.982414 0.166355 -0.0847829  
     length 3.57922  
     axis 0 0 0   XYZ
    dof ry rz
    limits (-20.0 10.0)
           (0.0 20.0)
  end
  begin
     id 18 
     name lhumerus
     direction 1 -4.48975e-011 5.47647e-028   
     length 4.76405   
     axis -180 -30 -90   XYZ
    dof rx ry rz
    limits (-60.0 90.0)
           (-90.0 90.0)
           (-90.0 90.0)
  end
  begin
     id 19
     name lradius
     direction 1 -4.48949e-011 -8.32142e-027   
     length 3.13759   
     axis -180 -30 -90   XYZ
    dof rx
    limits (-10.0 170.0)
  end
  begin
     id 20
     name lwrist
     direction 1 -4.48978e-011 -1.32705e-026   
     length 1.56879   
     axis 9.60836e-015 90 90   XYZ
    dof ry
    limits (-180.0 0.0)
 end
  begin
     id 21 
     name lhand
     direction 1 -4.48975e-011 -2.65409e-026   
     length 0.732262   
     axis 1.69354e-014 90 90   XYZ
    dof rx rz
    limits (-90.0 90.0)
           (-45.0 45.0)
  end
  begin
     id 22 
     name lfingers
     direction 1 -4.48923e-011 -5.30819e-026   
     length 0.590368   
     axis 3.38708e-014 90 90   XYZ
    dof rx
    limits (0.0 90.0)
  end
  begin
     id 23
     name lthumb
     direction 0.707107 -6.34914e-011 0.707107   
     length 0.847654   
     axis -90 45 2.85299e-015   XYZ
    dof rx rz
    limits (-45.0 45.0)
           (-45.0 45.0)
  end
  begin
     id 24 
     name rclavicle
     direction -0.963658 0.245183 -0.106063   
     length 3.43472  
     axis 0 0 0   XYZ 
    dof ry rz
    limits (-10.0 20.0)
           (-20.0 0.0)
  end
  begin
     id 25 
     name rhumerus
     direction -1 -4.48963e-011 -1.64784e-027  
     length 5.10161   
     axis -180 30 90   XYZ
    dof rx ry rz
    limits (-90.0 60.0)
           (-90.0 90.0)
           (-90.0 90.0)
  end
  begin
     id 26 
     name rradius
     direction -1 -4.48969e-011 -2.87943e-027   
     length 3.23267   
     axis -180 30 90   XYZ
    dof rx
    limits (-10.0 170.0)
  end
  begin
     id 27 
     name rwrist
     direction -1 -4.48982e-011 -1.32705e-026   
     length 1.61633   
     axis 9.60836e-015 -90 -90   XYZ
    dof ry
    limits (-180.0 0.0)
  end
  begin
     id 28
     name rhand
     direction -1 -4.48963e-011 -2.65409e-026   
     length 0.702   
     axis 1.69354e-014 -90 -90   XYZ
    dof rx rz
    limits (-90.0 90.0)
           (-45.0 45.0)
  end
  begin
     id 29
     name rfingers
     direction -1 -4.48934e-011 -5.30819e-026   
     length 0.565971   
     axis 3.38708e-014 -90 -90   XYZ
    dof rx
    limits (0.0 90.0)
  end
  begin
     id 30
     name rthumb
     direction -0.707107 -6.34908e-011 0.707107   
     length 0.812624   
     axis -90 -45 -2.85299e-015   XYZ
    dof rx rz
    limits (-45.0 45.0)
           (-45.0 45.0)
  end
:hierarchy
  begin
    root lhipjoint rhipjoint lowerback
    lhipjoint lfemur
    lfemur ltibia
    ltibia lfoot
    lfoot ltoes
    rhipjoint rfemur
    rfemur rtibia
    rtibia rfoot
    rfoot rtoes
    lowerback upperback
    upperback thorax
    thorax lowerneck lclavicle rclavicle
    lowerneck upperneck
    upperneck head
    lclavicle lhumerus
    lhumerus lradius
    lradius lwrist
    lwrist lhand lthumb
    lhand lfingers
    rclavicle rhumerus
    rhumerus rradius
    rradius rwrist
    rwrist rhand rthumb
    rhand rfingers
  end

#!OML:ASF \\sashay\E\basketball\basketball\Project 1\Capture day 1\Session 1\Subject.ASF
:FULLY-SPECIFIED
:DEGREES
49
root 31.6112 15.1462 -0.315946 -177.998 -57.1479 177.076
lowerback 3.62384 1.62015 -4.86399
upperback 6.44194 1.8594 -0.00662081
thorax 4.48577 0.586102 2.70812
lowerneck -5.35758 1.24906 -10.4304
upperneck -6.06761 2.36914 14.1208
head -1.1604 1.16281 6.03347
rclavicle 7.40721e-014 -1.29707e-014
rhumerus -32.5389 -9.14068 -88.6309
rradius 31.6372
rwrist 5.12275
rhand -23.5382 28.8117
rfingers 7.12502
rthumb 2.92331 -1.14801
lclavicle 7.40721e-014 -1.29707e-014
lhumerus -22.2145 11.7509 85.0482
lradius 18.4034
lwrist -8.94504
lhand -15.6408 24.911
lfingers 7.12502
lthumb 10.5467 54.6264
rfemur -11.3244 -4.37319 14.601
rtibia 42.6622
rfoot -25.2239 -17.2301
rtoes -27.052
lfemur -3.62315 14.1237 -16.5667
ltibia 38.2238
lfoot -29.4507 14.0017
ltoes -5.11989
50
root 31.565 15.1267 -0.326256 -177.977 -56.7722 177.277
lowerback 3.86381 1.54104 -4.92271
upperback 6.24023 1.74028 0.126578
thorax 4.14256 0.537849 2.87171
lowerneck -5.39443 1.45656 -10.4053
upperneck -5.78884 2.63207 13.9833
head -1.10627 1.30427 5.98456
rclavicle -5.31501e-014 -1.21259e-014
rhumerus -33.3736 -8.28915 -88.6572
rradius 32.339
rwrist 3.96437
rhand -23.8271 29.352
rfingers 7.12502
rthumb 2.64435 -0.611372
lclavicle -5.31501e-014 -1.21259e-014
lhumerus -22.978 11.4724 85.2185
lradius 19.2744
lwrist -7.17022
lhand -15.886 25.7857
lfingers 7.12502
lthumb 10.3101 55.513
rfemur -11.4914 -4.08194 14.6428
rtibia 42.8223
rfoot -25.4384 -17.1661
rtoes -26.8411
lfemur -3.84689 14.4027 -16.5548
ltibia 38.6772
lfoot -30.0158 14.0946
ltoes -4.16754
51
root 31.513 15.107 -0.333049 -178.027 -56.5064 177.448
lowerback 4.08954 1.4863 -4.81061
upperback 6.19731 1.65227 0.167241
thorax 3.97867 0.502453 2.8462
lowerneck -5.8193 1.66394 -10.3038
upperneck -5.42445 2.90698 13.9023
head -0.963625 1.46087 5.94594
rclavicle 2.38666e-014 -4.82053e-015
rhumerus -33.9918 -7.67587 -88.7714
rradius 33.0433
rwrist 2.66251
rhand -23.9115 30.0864
rfingers 7.12502
rthumb 2.56287 0.122058
lclavicle 2.38666e-014 -4.82053e-015
lhumerus -23.6188 10.5711 85.513
lradius 20.1914
lwrist -5.29948
lhand -16.3307 26.1611
lfingers 7.12502
lthumb 9.8811 55.9092
rfemur -11.5183 -3.96353 14.6177
rtibia 42.9615
rfoot -25.6078 -17.1602
rtoes -26.9065
lfemur -3.9771 14.5514 -16.5536
ltibia 39.2009
lfoot -30.1426 14.5946
ltoes -6.2045
52
root 31.4599 15.0916 -0.339583 -178.185 -56.1559 177.794
lowerback 4.29322 1.53069 -4.44794
upperback 6.20407 1.70295 0.0801299
thorax 3.87629 0.545635 2.54757
lowerneck -6.184 1.71196 -9.5792
upperneck -5.44147 2.93466 13.4367
head -0.89873 1.47123 5.68027
rclavicle -4.43414e-014 1.55549e-014
rhumerus -34.4788 -7.41463 -89.1049
rradius 33.8448
rwrist 1.33903
rhand -24.0693 30.3037
rfingers 7.12502
rthumb 2.41041 0.33755
lclavicle -4.43414e-014 1.55549e-014
lhumerus -24.2436 9.34148 85.7155
lradius 21.4322
lwrist -3.00976
lhand -16.8059 26.6363
lfingers 7.12502
lthumb 9.42264 56.4056
rfemur -11.5901 -3.93056 14.6811
rtibia 43.0685
rfoot -25.7059 -17.1419
rtoes -27.496
lfemur -4.18338 14.8645 -16.4166
ltibia 39.807
lfoot -30.3413 14.8315
ltoes -7.78882
53
root 31.4122 15.0804 -0.345903 -178.406 -55.7656 178.349
lowerback 4.50285 1.54936 -4.04551
upperback 6.13677 1.72363 0.0571964
thorax 3.69534 0.578832 2.29276
lowerneck -6.28132 1.68473 -8.99079
upperneck -5.48924 2.85716 13.1424
head -0.87739 1.42168 5.48891
rclavicle 5.07149e-014 -1.69961e-014
rhumerus -34.9713 -7.18805 -89.4258
rradius 34.6706
rwrist 0.0517668
rhand -24.3528 30.2275
rfingers 7.12502
rthumb 2.13665 0.258407
lclavicle 5.07149e-014 -1.69961e-014
lhumerus -25.1115 8.0418 86.009
lradius 22.7929
lwrist -0.743331
lhand -17.8813 26.8194
lfingers 7.12502
lthumb 8.38486 56.6329
rfemur -11.8052 -3.85452 14.9163
rtibia 43.139
rfoot -25.707 -17.1455
rtoes -28.3188
lfemur -4.54839 15.2907 -16.1576
ltibia 40.4934
lfoot -30.6677 14.7821
ltoes -7.96476
54
root 31.3588 15.0657 -0.348652 -178.683 -55.2769 178.906
lowerback 4.77303 1.55134 -3.69443
upperback 6.06311 1.71755 0.152752
thorax 3.47204 0.59387 2.18811
lowerneck -6.76393 1.90979 -9.20599
upperneck -4.78109 3.16097 13.2391
head -0.631786 1.61033 5.56419
rclavicle -1.23743e-014 -7.55382e-015
rhumerus -35.5704 -6.6847 -89.5773
rradius 35.6164
rwrist -1.34945
rhand -25.0319 29.9349
rfingers 7.12502
rthumb 1.48075 -0.0397302
lclavicle -1.23743e-014 -7.55382e-015
lhumerus -26.2286 6.8017 86.541
lradius 24.4515
lwrist 2.06604
lhand -18.7823 27.3662
lfingers 7.12502
lthumb 7.51533 57.2127
rfemur -11.9468 -3.68352 15.118
rtibia 43.1536
rfoot -25.6743 -17.1335
rtoes -29.042
lfemur -4.82848 15.7785 -15.9302
ltibia 41.2955
lfoot -31.2369 14.5363
ltoes -6.67563
